<svg id="Layer_1" data-name="Layer 1" xmlns="http://www.w3.org/2000/svg" viewBox="0 0 125.65 80"><defs><style>.cls-1{fill:#ffc120;}.cls-2{fill:#fff;}.cls-3{fill:#afb8cd;}</style></defs><path class="cls-1" d="M52.88,42H12a2,2,0,1,1,0-4H52.88a2,2,0,0,1,0,4Z"/><path class="cls-1" d="M52.88,42a2,2,0,0,1-1.41-3.41L80.39,9.66a2,2,0,1,1,2.83,2.83L54.29,41.41A2,2,0,0,1,52.88,42Z"/><path class="cls-1" d="M81.81,70.93a2,2,0,0,1-1.42-.59L51.47,41.41a2,2,0,1,1,2.82-2.82L83.22,67.51a2,2,0,0,1-1.41,3.42Z"/><circle class="cls-2" cx="52.88" cy="40" r="11.37"/><path class="cls-3" d="M52.88,53.37A13.37,13.37,0,1,1,66.25,40,13.38,13.38,0,0,1,52.88,53.37Zm0-22.74A9.37,9.37,0,1,0,62.25,40,9.38,9.38,0,0,0,52.88,30.63Z"/><circle class="cls-2" cx="11.97" cy="40" r="8.52"/><path class="cls-3" d="M12,50.52A10.52,10.52,0,1,1,22.5,40,10.53,10.53,0,0,1,12,50.52Zm0-17A6.52,6.52,0,1,0,18.5,40,6.53,6.53,0,0,0,12,33.48Z"/><circle class="cls-2" cx="81.81" cy="11.07" r="8.52"/><path class="cls-3" d="M81.81,21.6A10.53,10.53,0,1,1,92.33,11.07,10.54,10.54,0,0,1,81.81,21.6Zm0-17a6.53,6.53,0,1,0,6.52,6.52A6.54,6.54,0,0,0,81.81,4.55Z"/><circle class="cls-2" cx="81.81" cy="68.93" r="8.52"/><path class="cls-3" d="M81.81,79.45A10.53,10.53,0,1,1,92.33,68.93,10.54,10.54,0,0,1,81.81,79.45Zm0-17.05a6.53,6.53,0,1,0,6.52,6.53A6.54,6.54,0,0,0,81.81,62.4Z"/><path class="cls-1" d="M121.39,36.38h-3a12.76,12.76,0,0,0-1.19-2.88l2.13-2.14a1,1,0,0,0,0-1.4l-3.61-3.61a1,1,0,0,0-1.4,0l-2.11,2.12a12.91,12.91,0,0,0-2.91-1.23v-3a1,1,0,0,0-1-1l-5.25,0a1,1,0,0,0-1,1v3a12.89,12.89,0,0,0-2.91,1.22L97,26.37a1,1,0,0,0-1.4,0L92,30a1,1,0,0,0,0,1.4l2.13,2.13A13.12,13.12,0,0,0,93,36.4h-3a1,1,0,0,0-1,1v5.1a1,1,0,0,0,1,1h3a13.12,13.12,0,0,0,1.19,2.89L92,48.5a1,1,0,0,0,0,1.4l3.61,3.61a1,1,0,0,0,1.4,0l2.11-2.11a12.89,12.89,0,0,0,2.91,1.22v3a1,1,0,0,0,1,1h5.25a1,1,0,0,0,1-1v-3a13.36,13.36,0,0,0,2.91-1.22l2.11,2.11a1,1,0,0,0,1.4,0l3.61-3.61a1,1,0,0,0,0-1.4l-2.13-2.13a12.84,12.84,0,0,0,1.19-2.89h3a1,1,0,0,0,1-1V37.37A1,1,0,0,0,121.39,36.38ZM105.67,49.07a9.13,9.13,0,1,1,9.13-9.13A9.14,9.14,0,0,1,105.67,49.07Z"/><path class="cls-1" d="M103,57.24a1.64,1.64,0,0,1-1.64-1.65V53.11a13.44,13.44,0,0,1-2.14-.9L97.49,54a1.64,1.64,0,0,1-2.32,0l-3.61-3.62a1.64,1.64,0,0,1,0-2.32l1.79-1.79a13,13,0,0,1-.87-2.11H89.94A1.64,1.64,0,0,1,88.3,42.5V37.39a1.63,1.63,0,0,1,1.64-1.64h2.54a13.49,13.49,0,0,1,.87-2.12l-1.79-1.79a1.64,1.64,0,0,1,0-2.32l3.61-3.61a1.68,1.68,0,0,1,2.32,0l1.77,1.76a13.44,13.44,0,0,1,2.14-.9V24.29A1.63,1.63,0,0,1,103,22.65l5.25,0a1.64,1.64,0,0,1,1.64,1.64v2.49a13.44,13.44,0,0,1,2.14.9l1.77-1.77a1.64,1.64,0,0,1,2.32,0l3.61,3.61a1.64,1.64,0,0,1,.48,1.16,1.63,1.63,0,0,1-.48,1.16L118,33.61a14.57,14.57,0,0,1,.88,2.12h2.53A1.64,1.64,0,0,1,123,37.37v5.11a1.64,1.64,0,0,1-1.64,1.64h-2.53a14.57,14.57,0,0,1-.88,2.12L119.77,48a1.64,1.64,0,0,1,0,2.32L116.16,54a1.64,1.64,0,0,1-2.32,0l-1.77-1.77a13.44,13.44,0,0,1-2.14.9v2.49a1.64,1.64,0,0,1-1.64,1.64Zm-3.9-6.49a.62.62,0,0,1,.32.09A13.43,13.43,0,0,0,102.23,52a.64.64,0,0,1,.47.62v3a.34.34,0,0,0,.34.34h5.25a.34.34,0,0,0,.34-.34v-3a.65.65,0,0,1,.47-.63,12,12,0,0,0,2.77-1.16.65.65,0,0,1,.78.11L114.76,53a.34.34,0,0,0,.48,0l3.61-3.61a.34.34,0,0,0,0-.48l-2.13-2.13a.65.65,0,0,1-.11-.78,12.73,12.73,0,0,0,1.13-2.75.65.65,0,0,1,.63-.47h3a.34.34,0,0,0,.34-.34V37.37a.34.34,0,0,0-.34-.33h-3a.66.66,0,0,1-.63-.48,12.94,12.94,0,0,0-1.13-2.75.65.65,0,0,1,.11-.78l2.13-2.13a.31.31,0,0,0,.1-.24.29.29,0,0,0-.1-.23l-3.61-3.62a.34.34,0,0,0-.48,0l-2.11,2.12a.64.64,0,0,1-.78.1,12.49,12.49,0,0,0-2.77-1.16.65.65,0,0,1-.47-.63v-3a.34.34,0,0,0-.34-.33H103a.34.34,0,0,0-.34.34v3a.64.64,0,0,1-.47.62,12.52,12.52,0,0,0-2.77,1.17.65.65,0,0,1-.78-.11l-2.11-2.11a.34.34,0,0,0-.48,0l-3.61,3.61a.35.35,0,0,0-.1.24.37.37,0,0,0,.1.24l2.13,2.13a.65.65,0,0,1,.11.78,12.65,12.65,0,0,0-1.13,2.74.65.65,0,0,1-.63.48h-3a.34.34,0,0,0-.34.34V42.5a.34.34,0,0,0,.34.33h3a.66.66,0,0,1,.63.48,12.65,12.65,0,0,0,1.13,2.74.65.65,0,0,1-.11.78L92.48,49a.33.33,0,0,0-.1.23.35.35,0,0,0,.1.24l3.61,3.61a.34.34,0,0,0,.48,0l2.11-2.11A.66.66,0,0,1,99.14,50.75Zm6.53-1a9.79,9.79,0,1,1,9.78-9.79A9.8,9.8,0,0,1,105.67,49.73Zm0-18.27a8.48,8.48,0,1,0,8.48,8.48A8.49,8.49,0,0,0,105.67,31.46Z"/></svg>